<svg width="180" height="180" viewBox="0 0 180 180" fill="none" xmlns="http://www.w3.org/2000/svg">
<g clip-path="url(#clip0)">
<path d="M90.8775 175.338L98.595 105.273C98.8288 103.141 100.63 101.527 102.774 101.527H130.839L126.445 61.0752C126.075 57.6984 123.223 55.1418 119.826 55.1418H24.119C20.7222 55.1418 17.8696 57.6988 17.4997 61.0752L5.27627 172.615C4.8442 176.556 7.93056 180 11.8955 180H95.0565C92.5534 180 90.6047 177.826 90.8775 175.338V175.338Z" fill="#7FB3FA"/>
<path d="M30.7614 172.615L42.9849 61.0757C43.3551 57.6989 46.2073 55.1423 49.6041 55.1423H24.119C20.7222 55.1423 17.8699 57.6992 17.4997 61.0757L5.27627 172.615C4.8442 176.556 7.93056 180 11.8955 180H37.3806C33.416 180 30.3293 176.556 30.7614 172.615Z" fill="#64A6F4"/>
<path d="M106.504 72.3442C105.026 72.3442 103.827 71.1461 103.827 69.6681V37.2069C103.827 19.6418 89.5375 5.35184 71.9724 5.35184C54.4073 5.35184 40.1173 19.6418 40.1173 37.2069V69.6681C40.1173 71.1461 38.9192 72.3442 37.4412 72.3442C35.9633 72.3442 34.7651 71.1461 34.7651 69.6681V37.2069C34.7655 16.6908 51.4566 0 71.9724 0C92.4882 0 109.179 16.6908 109.179 37.2069V69.6681C109.18 71.1464 107.982 72.3442 106.504 72.3442Z" fill="#B5DCFF"/>
<path d="M37.4417 84.7754C32.6404 84.7754 28.7339 80.8691 28.7339 76.0679C28.7339 71.2666 32.6401 67.3604 37.4417 67.3604C42.2434 67.3604 46.1492 71.2666 46.1492 76.0679C46.1492 80.8691 42.243 84.7754 37.4417 84.7754ZM37.4417 72.7122C35.5915 72.7122 34.0861 74.2176 34.0861 76.0679C34.0861 77.9181 35.5915 79.4235 37.4417 79.4235C39.292 79.4235 40.7974 77.9181 40.7974 76.0679C40.7974 74.2176 39.292 72.7122 37.4417 72.7122Z" fill="#DBEDFF"/>
<path d="M106.503 84.7754C101.702 84.7754 97.7959 80.8691 97.7959 76.0679C97.7959 71.2666 101.702 67.3604 106.503 67.3604C111.305 67.3604 115.211 71.2666 115.211 76.0679C115.211 80.8691 111.305 84.7754 106.503 84.7754ZM106.503 72.7122C104.653 72.7122 103.148 74.2176 103.148 76.0679C103.148 77.9181 104.653 79.4235 106.503 79.4235C108.354 79.4235 109.859 77.9181 109.859 76.0679C109.859 74.2176 108.354 72.7122 106.503 72.7122Z" fill="#DBEDFF"/>
<path d="M174.739 175.338L167.022 104.917C166.788 102.785 164.987 101.17 162.843 101.17H102.418C100.273 101.17 98.4721 102.785 98.2386 104.917L90.5211 175.338C90.2483 177.826 92.197 180 94.7002 180H170.56C173.063 180 175.012 177.826 174.739 175.338Z" fill="#FF94D5"/>
<path d="M116.006 175.338L123.724 104.917C123.958 102.785 125.758 101.17 127.903 101.17H102.418C100.273 101.17 98.4721 102.785 98.2386 104.917L90.5211 175.338C90.2483 177.826 92.197 180 94.7002 180H120.185C117.682 180 115.733 177.826 116.006 175.338Z" fill="#FF72C7"/>
<path d="M132.63 160.527C120.333 160.527 110.329 150.523 110.329 138.226V122.353C110.329 120.875 111.527 119.677 113.005 119.677C114.483 119.677 115.681 120.875 115.681 122.353V138.226C115.681 147.572 123.285 155.175 132.63 155.175C141.976 155.175 149.579 147.572 149.579 138.226V122.353C149.579 120.875 150.777 119.677 152.255 119.677C153.733 119.677 154.931 120.875 154.931 122.353V138.226C154.93 150.523 144.926 160.527 132.63 160.527V160.527Z" fill="#B5DCFF"/>
<path d="M152.254 124.661C147.633 124.661 143.873 120.901 143.873 116.279C143.873 111.658 147.633 107.898 152.254 107.898C156.876 107.898 160.636 111.658 160.636 116.279C160.636 120.901 156.876 124.661 152.254 124.661ZM152.254 113.25C150.584 113.25 149.225 114.609 149.225 116.279C149.225 117.95 150.584 119.309 152.254 119.309C153.925 119.309 155.284 117.95 155.284 116.279C155.284 114.609 153.925 113.25 152.254 113.25Z" fill="#DBEDFF"/>
<path d="M113.005 124.661C108.383 124.661 104.623 120.901 104.623 116.279C104.623 111.658 108.383 107.898 113.005 107.898C117.627 107.898 121.387 111.658 121.387 116.279C121.387 120.901 117.627 124.661 113.005 124.661ZM113.005 113.25C111.334 113.25 109.975 114.609 109.975 116.279C109.975 117.95 111.334 119.309 113.005 119.309C114.676 119.309 116.035 117.95 116.035 116.279C116.035 114.609 114.676 113.25 113.005 113.25Z" fill="#DBEDFF"/>
</g>
<defs>
<clipPath id="clip0">
<rect width="180" height="180" fill="white"/>
</clipPath>
</defs>
</svg>
